<svg id="svg" style="background-color:#006600" version="1.1" xmlns="http://www.w3.org/2000/svg" xmlns:xlink="http://www.w3.org/1999/xlink" width="400" height="400" viewBox="0, -10, 400,400"><g id="svgg"><path id="path0" d="M199.195 28.345 C 198.469 29.119,198.438 29.874,198.438 46.665 L 198.438 64.178 194.866 71.054 C 192.902 74.836,190.870 78.665,190.352 79.565 L 189.409 81.199 186.989 79.776 C 183.238 77.568,181.091 77.719,176.557 80.509 C 174.092 82.026,173.310 81.873,169.277 79.087 C 165.850 76.719,164.978 76.539,163.420 77.879 C 160.446 80.438,164.337 85.092,171.456 87.490 C 174.458 88.502,175.345 88.356,179.386 86.193 L 182.405 84.577 184.203 85.550 C 186.938 87.030,187.088 86.434,182.135 93.808 L 178.817 98.749 174.986 98.538 C 169.024 98.210,163.281 103.299,163.281 108.911 C 163.281 112.905,167.789 113.164,169.630 109.276 C 170.172 108.132,171.085 106.637,171.660 105.954 L 172.705 104.712 176.684 104.798 C 181.476 104.900,182.652 104.490,184.353 102.120 L 185.595 100.391 191.235 100.391 C 194.337 100.391,196.874 100.522,196.873 100.684 C 196.851 103.984,185.363 111.905,176.686 114.602 C 169.459 116.849,161.045 118.335,155.463 118.351 L 152.527 118.359 151.800 116.309 C 149.888 110.918,145.161 107.301,139.742 107.082 C 134.259 106.860,133.784 112.570,139.224 113.308 C 148.651 114.588,148.584 127.372,139.143 128.666 C 136.900 128.974,135.547 130.164,135.547 131.830 C 135.547 138.082,148.051 134.112,151.399 126.797 L 152.346 124.730 157.325 124.487 C 174.227 123.663,189.751 117.856,198.259 109.174 L 201.426 105.942 203.350 108.320 C 210.755 117.472,230.765 125.000,247.689 125.000 L 250.674 125.000 251.914 127.518 C 254.129 132.017,258.113 134.696,263.124 135.053 C 268.756 135.455,269.548 129.849,263.965 129.092 C 254.555 127.818,254.168 115.345,263.486 113.642 C 267.014 112.998,268.483 111.014,267.202 108.622 C 264.548 103.662,250.781 111.550,250.781 118.031 C 250.781 120.257,233.424 117.738,223.420 114.059 C 214.970 110.953,205.859 103.973,205.859 100.605 C 205.859 99.650,215.369 100.467,217.550 101.610 C 220.379 103.093,221.365 102.990,225.675 100.760 C 229.718 98.667,230.277 98.746,234.604 102.012 C 238.919 105.271,243.629 101.583,239.763 97.972 C 233.451 92.075,228.436 91.358,222.195 95.460 C 220.926 96.294,221.233 96.693,217.101 88.829 L 214.207 83.322 217.837 81.212 C 222.342 78.593,222.778 77.867,222.977 72.656 C 223.151 68.133,223.241 68.009,227.971 65.801 C 231.516 64.146,232.031 63.652,232.031 61.904 C 232.031 58.799,229.129 58.191,224.460 60.318 C 218.753 62.919,216.824 65.631,216.798 71.094 L 216.782 74.414 214.277 75.879 C 212.899 76.685,211.616 77.344,211.426 77.344 C 211.237 77.344,209.555 74.440,207.689 70.891 L 204.297 64.438 204.297 46.525 C 204.297 26.566,204.462 27.703,201.549 27.597 C 200.389 27.555,199.745 27.760,199.195 28.345 M290.061 84.853 C 289.533 85.606,289.451 88.043,289.435 103.310 L 289.416 120.898 288.324 123.007 L 287.233 125.116 285.120 125.225 C 283.958 125.284,281.970 125.697,280.701 126.143 C 279.432 126.589,278.274 126.953,278.128 126.953 C 277.982 126.953,275.768 125.097,273.208 122.827 C 267.094 117.407,264.842 116.734,263.707 119.988 C 262.989 122.049,263.553 122.877,268.892 127.596 C 275.995 133.875,276.976 134.271,281.543 132.695 C 282.456 132.380,283.203 132.215,283.203 132.327 C 283.203 133.079,276.630 144.839,273.896 148.978 L 270.571 154.011 267.413 153.769 C 261.917 153.346,259.219 154.929,256.449 160.201 C 254.254 164.378,254.595 166.762,257.478 167.395 C 259.168 167.766,260.378 166.766,261.749 163.863 C 263.446 160.273,264.119 159.841,267.440 160.209 C 271.933 160.707,274.297 159.978,275.917 157.594 L 276.856 156.212 283.545 156.133 C 291.247 156.043,291.051 155.908,288.379 159.437 C 282.391 167.346,268.638 173.131,252.344 174.594 C 245.245 175.231,245.412 175.257,244.932 173.474 C 243.071 166.565,232.965 160.725,229.267 164.423 C 227.972 165.718,227.874 166.351,228.718 167.982 C 229.311 169.129,229.691 169.296,232.611 169.692 C 241.936 170.955,240.805 183.938,231.250 185.310 C 228.448 185.713,227.261 188.624,229.134 190.498 C 232.214 193.577,240.770 189.660,243.812 183.777 L 245.117 181.253 248.047 181.248 C 250.764 181.244,256.318 180.732,258.594 180.277 C 259.131 180.169,260.186 179.975,260.938 179.845 C 277.575 176.976,290.785 169.299,295.428 159.801 L 297.188 156.201 302.814 156.204 C 308.169 156.207,308.538 156.258,310.485 157.269 C 312.983 158.565,315.031 158.265,318.804 156.054 C 321.884 154.249,322.462 154.310,326.172 156.836 C 329.881 159.362,331.467 159.630,332.784 157.955 C 334.326 155.996,333.873 154.499,331.119 152.445 C 324.706 147.663,321.781 147.186,316.485 150.058 C 313.090 151.899,312.450 151.805,311.222 149.291 C 310.730 148.284,309.385 145.712,308.232 143.574 C 307.080 141.436,306.294 139.633,306.486 139.568 C 311.041 138.025,313.672 134.242,313.672 129.234 C 313.672 125.257,314.024 124.811,318.750 122.815 C 322.684 121.154,323.755 119.032,321.697 116.974 C 320.265 115.542,318.625 115.727,314.518 117.783 C 308.774 120.658,306.767 123.774,307.098 129.297 L 307.227 131.445 305.276 132.725 C 302.930 134.263,303.532 134.874,299.061 126.404 L 295.703 120.044 295.703 102.882 C 295.703 83.173,295.837 83.984,292.578 83.984 C 291.048 83.984,290.549 84.157,290.061 84.853 M104.553 85.480 C 103.972 86.122,103.906 87.938,103.902 103.351 L 103.898 120.508 99.767 128.320 C 97.494 132.617,95.576 136.192,95.504 136.265 C 95.432 136.338,94.142 135.679,92.638 134.801 C 88.826 132.574,87.122 132.596,82.700 134.928 L 79.430 136.653 77.899 135.963 C 77.056 135.583,75.518 134.621,74.480 133.825 C 69.767 130.212,64.751 133.466,68.848 137.479 C 74.336 142.854,79.219 144.022,84.516 141.228 L 87.816 139.488 90.002 140.672 C 91.204 141.323,92.188 142.021,92.188 142.224 C 92.188 142.904,90.025 146.643,87.199 150.848 L 84.399 155.017 80.763 154.800 C 76.488 154.545,74.952 155.107,72.496 157.825 C 68.040 162.758,67.772 168.359,71.992 168.359 C 73.537 168.359,74.116 167.799,75.573 164.892 C 77.417 161.213,77.718 161.050,82.376 161.189 C 87.136 161.331,88.065 160.983,89.851 158.388 L 91.066 156.622 97.335 156.729 L 103.604 156.836 104.293 159.063 C 108.137 171.495,127.664 181.514,150.302 182.670 L 155.487 182.934 156.643 185.357 C 160.130 192.662,172.266 196.536,172.266 190.344 C 172.266 188.590,170.805 187.112,169.061 187.101 C 159.654 187.038,159.111 173.017,168.459 171.561 C 173.894 170.715,173.786 165.220,168.334 165.244 C 162.964 165.267,157.933 169.108,155.946 174.701 L 155.285 176.563 152.154 176.555 C 143.422 176.533,130.979 173.514,122.860 169.446 C 116.864 166.442,110.156 159.895,110.156 157.047 C 110.156 155.903,120.953 156.578,123.123 157.857 C 125.930 159.513,128.246 159.303,132.154 157.040 C 135.507 155.099,136.049 155.158,139.734 157.854 C 143.627 160.701,145.338 160.797,146.660 158.242 C 147.474 156.667,147.013 155.591,144.660 153.577 C 139.201 148.903,135.199 148.179,129.998 150.925 L 126.598 152.720 124.041 147.900 C 120.914 142.005,120.805 142.775,125.112 140.345 C 129.803 137.697,130.201 137.047,130.405 131.708 L 130.560 127.673 132.136 126.531 C 133.004 125.903,134.750 125.011,136.017 124.549 C 138.580 123.615,139.453 122.682,139.453 120.880 C 139.453 117.182,134.283 117.245,128.843 121.010 C 125.152 123.564,124.219 125.421,124.219 130.210 L 124.219 133.493 121.433 135.106 C 119.900 135.993,118.531 136.719,118.390 136.719 C 118.248 136.719,116.250 133.141,113.949 128.768 L 109.766 120.817 109.766 103.438 C 109.766 87.097,109.723 86.020,109.051 85.412 C 108.065 84.520,105.385 84.560,104.553 85.480 M198.804 143.970 C 198.078 144.744,198.047 145.503,198.047 162.636 L 198.047 180.495 197.023 182.533 C 196.460 183.653,195.959 184.617,195.910 184.675 C 195.860 184.732,195.046 184.429,194.101 184.000 C 191.904 183.003,189.390 182.998,186.523 183.984 C 183.406 185.057,183.340 185.041,180.431 182.513 C 172.743 175.833,173.226 176.186,171.760 176.178 C 168.895 176.162,167.818 179.635,170.020 181.790 C 179.768 191.332,181.945 192.402,187.629 190.440 C 190.477 189.457,190.728 189.431,191.623 190.017 C 192.853 190.823,192.938 190.485,190.300 195.276 C 189.046 197.552,187.535 200.381,186.940 201.563 C 186.345 202.744,184.338 206.021,182.480 208.845 L 179.102 213.980 175.369 213.771 C 169.797 213.460,167.184 215.179,164.458 220.949 C 161.286 227.664,166.933 230.363,170.271 223.727 C 172.064 220.162,172.371 219.995,176.704 220.222 C 181.080 220.451,183.000 219.861,184.135 217.940 L 184.810 216.797 190.070 216.797 L 195.331 216.797 194.731 217.712 C 190.221 224.595,169.120 232.031,154.097 232.031 C 152.908 232.031,152.759 231.887,152.177 230.176 C 150.287 224.611,145.047 220.703,139.477 220.703 C 133.755 220.703,134.121 225.868,139.922 226.968 C 145.373 228.002,148.046 233.246,145.647 238.202 C 144.689 240.180,141.918 242.188,140.145 242.188 C 136.413 242.188,134.391 245.097,136.455 247.497 C 139.587 251.138,149.881 245.926,151.953 239.649 L 152.372 238.380 156.752 238.112 C 174.567 237.021,188.788 231.944,197.776 223.466 C 200.119 221.255,200.512 221.017,200.842 221.607 C 204.954 228.955,217.915 236.580,230.858 239.266 C 231.181 239.333,232.324 239.591,233.398 239.838 C 236.526 240.559,244.047 241.406,247.320 241.406 L 250.333 241.406 251.294 243.504 C 253.411 248.128,257.752 251.160,262.712 251.478 C 268.203 251.831,269.194 246.327,263.786 245.516 C 254.204 244.079,253.654 231.773,263.095 230.048 C 269.152 228.942,268.499 222.800,262.410 223.608 C 256.913 224.337,250.391 230.214,250.391 234.437 C 250.391 235.514,243.581 235.372,237.305 234.165 C 221.406 231.107,210.280 225.448,206.323 218.405 L 205.419 216.797 210.724 216.797 C 215.719 216.797,216.147 216.858,218.030 217.843 C 220.536 219.153,223.097 218.772,226.689 216.555 C 229.512 214.813,230.447 214.980,234.523 217.958 C 237.384 220.048,238.355 220.295,239.781 219.297 C 242.148 217.639,241.637 215.311,238.363 212.839 C 232.476 208.394,229.288 207.847,224.521 210.463 C 222.871 211.369,221.264 212.109,220.950 212.109 C 220.332 212.109,213.895 200.197,214.225 199.662 C 214.331 199.490,216.362 198.222,218.738 196.843 C 224.065 193.751,224.620 192.888,224.915 187.248 C 225.137 183.005,225.167 182.967,229.942 180.843 C 236.702 177.836,234.244 172.207,227.386 174.992 C 220.745 177.688,218.621 180.281,218.423 185.932 L 218.291 189.697 214.823 191.723 C 212.916 192.838,211.218 193.749,211.049 193.747 C 210.880 193.746,209.204 190.850,207.324 187.312 L 203.906 180.880 203.906 162.558 C 203.906 142.146,204.074 143.328,201.158 143.222 C 199.998 143.180,199.354 143.385,198.804 143.970 M290.490 197.199 C 289.910 197.840,289.843 199.632,289.838 214.679 L 289.832 231.445 287.148 236.521 C 284.558 241.419,284.411 241.609,282.955 241.925 C 282.124 242.104,280.340 242.605,278.990 243.037 C 276.912 243.702,276.432 243.743,275.865 243.299 C 274.556 242.275,270.539 238.842,268.760 237.227 C 265.362 234.141,261.780 234.413,261.731 237.761 C 261.709 239.281,262.138 239.801,266.938 244.069 C 274.145 250.476,274.681 250.733,278.899 249.806 C 279.548 249.664,280.078 249.665,280.078 249.808 C 280.078 250.362,277.065 255.495,273.919 260.301 L 270.628 265.329 267.171 265.059 C 260.845 264.564,254.731 270.085,255.155 275.909 C 255.464 280.158,259.392 279.737,261.782 275.200 C 263.308 272.305,264.624 270.926,265.529 271.273 C 268.730 272.501,274.404 271.222,275.883 268.938 L 276.758 267.588 282.729 267.583 C 289.646 267.577,289.552 267.462,285.741 271.273 C 278.323 278.691,264.935 283.472,248.399 284.607 L 244.649 284.864 244.394 283.592 C 243.359 278.416,237.810 273.882,231.641 273.171 C 226.797 272.612,226.234 278.692,231.055 279.493 C 236.471 280.394,238.645 283.106,238.205 288.413 C 237.918 291.874,235.177 294.508,231.254 295.091 C 228.031 295.570,226.580 298.455,228.564 300.439 C 231.900 303.775,244.141 296.835,244.141 291.608 C 244.141 291.271,245.462 291.045,248.535 290.855 C 270.934 289.470,289.078 281.158,294.682 269.713 L 295.727 267.578 301.282 267.585 C 306.734 267.591,306.872 267.613,308.789 268.750 C 312.039 270.678,314.807 270.205,320.162 266.809 C 321.167 266.171,323.243 267.054,326.565 269.533 C 328.994 271.345,330.310 271.497,331.779 270.136 C 333.917 268.154,332.983 266.096,328.640 263.219 C 323.086 259.540,320.794 259.302,315.882 261.892 L 312.590 263.629 309.389 257.549 C 307.255 253.497,306.317 251.339,306.578 251.079 C 306.792 250.864,308.240 249.962,309.795 249.075 C 314.017 246.665,314.816 245.166,314.834 239.619 C 314.846 236.273,315.205 235.837,319.610 233.830 C 323.915 231.868,324.865 229.894,322.554 227.712 C 320.289 225.572,311.318 229.849,309.108 234.122 C 308.717 234.879,308.506 236.403,308.496 238.540 C 308.479 242.304,308.371 242.503,305.387 244.291 C 302.736 245.879,303.388 246.506,299.083 238.227 L 295.703 231.727 295.703 214.752 C 295.703 198.803,295.660 197.738,294.989 197.131 C 294.003 196.239,291.323 196.279,290.490 197.199 M105.646 198.615 L 104.688 199.574 104.688 215.962 L 104.688 232.351 100.354 240.589 C 97.971 245.121,95.846 248.828,95.633 248.828 C 95.419 248.828,94.144 248.213,92.799 247.461 C 89.337 245.525,87.293 245.718,82.947 248.392 C 80.383 249.969,79.897 249.933,76.964 247.949 C 72.758 245.105,72.171 244.859,70.755 245.353 C 67.788 246.387,67.900 249.290,70.997 251.638 C 77.268 256.393,80.448 256.966,85.530 254.258 L 88.721 252.558 90.830 253.698 L 92.939 254.839 92.117 256.228 C 91.665 256.992,89.969 259.593,88.348 262.009 L 85.400 266.401 81.600 266.152 C 76.086 265.790,74.108 267.074,71.149 272.938 C 69.165 276.868,69.836 279.688,72.756 279.688 C 74.564 279.687,75.315 279.036,76.717 276.254 C 78.673 272.375,79.021 272.149,82.483 272.511 C 85.759 272.853,85.954 272.837,88.112 272.052 C 89.200 271.657,90.089 270.922,90.936 269.722 L 92.171 267.969 99.308 267.992 L 106.445 268.016 107.963 271.179 C 113.520 282.758,135.829 292.629,155.507 292.216 L 158.083 292.162 159.327 294.688 C 161.525 299.153,165.826 302.086,170.963 302.625 C 176.227 303.177,176.495 297.035,171.240 296.270 C 161.857 294.903,161.725 282.448,171.076 280.801 C 176.997 279.758,176.412 274.262,170.426 274.693 C 164.806 275.098,158.203 280.784,158.203 285.219 C 158.203 286.905,146.546 285.763,135.938 283.038 C 126.796 280.690,116.499 274.229,113.906 269.216 L 113.261 267.969 117.209 267.969 C 121.038 267.969,121.230 268.011,123.558 269.376 C 126.823 271.289,129.538 271.191,133.168 269.028 C 136.666 266.945,137.489 267.065,141.770 270.281 C 146.128 273.555,150.691 270.231,146.973 266.491 C 141.617 261.104,136.768 259.900,131.506 262.652 C 129.613 263.643,128.004 264.453,127.932 264.453 C 127.782 264.453,123.047 255.627,123.047 255.348 C 123.047 255.248,124.545 254.312,126.375 253.267 C 130.607 250.851,131.306 249.643,131.443 244.505 C 131.556 240.258,131.617 240.176,136.181 238.038 C 139.895 236.298,140.234 235.942,140.234 233.785 C 140.234 230.896,138.019 230.289,133.860 232.040 C 127.499 234.716,125.318 237.474,125.069 243.157 L 124.914 246.705 122.578 248.060 C 119.677 249.742,119.919 249.780,118.726 247.456 C 118.176 246.384,116.198 242.646,114.332 239.148 L 110.938 232.788 110.938 216.181 L 110.938 199.574 109.979 198.615 C 109.374 198.011,108.574 197.656,107.813 197.656 C 107.051 197.656,106.251 198.011,105.646 198.615 M198.466 251.420 C 197.674 252.427,197.656 252.832,197.656 270.358 L 197.656 288.266 196.392 290.830 L 195.128 293.393 193.170 293.161 C 191.702 292.987,190.379 293.175,187.896 293.907 C 184.669 294.859,184.560 294.865,183.794 294.165 C 174.298 285.477,172.951 284.741,170.933 287.139 C 169.061 289.364,169.584 290.272,175.911 295.780 C 182.769 301.752,183.398 301.969,188.852 300.237 C 191.627 299.356,192.265 299.350,191.445 300.215 C 191.251 300.419,189.735 303.135,188.077 306.250 C 186.418 309.365,183.652 313.980,181.929 316.504 L 178.796 321.095 174.801 321.031 C 169.215 320.941,167.188 322.306,164.253 328.134 C 162.319 331.975,162.704 334.085,165.432 334.597 C 167.347 334.956,168.495 334.082,169.964 331.144 C 171.914 327.246,171.828 327.297,175.972 327.589 C 180.411 327.901,181.992 327.442,183.667 325.358 L 184.896 323.828 199.661 323.828 L 214.426 323.828 216.991 325.238 C 220.189 326.996,221.827 326.864,226.200 324.496 C 229.649 322.629,229.996 322.680,234.053 325.667 C 237.189 327.976,238.303 328.163,239.828 326.638 C 241.931 324.536,241.341 322.983,237.360 320.142 C 231.773 316.155,229.032 315.771,224.205 318.296 C 221.193 319.872,220.938 319.941,220.542 319.284 C 220.309 318.896,218.925 316.377,217.468 313.688 C 214.428 308.077,214.214 308.929,219.408 305.965 C 223.582 303.583,224.344 302.264,224.549 297.070 C 224.716 292.828,224.693 292.860,229.150 290.772 C 232.863 289.033,233.203 288.676,233.203 286.520 C 233.203 283.244,230.487 282.926,225.140 285.574 C 219.674 288.282,217.974 290.930,217.964 296.755 L 217.959 299.414 215.093 301.074 C 213.516 301.987,212.068 302.730,211.875 302.725 C 211.682 302.719,209.810 299.455,207.715 295.470 L 203.906 288.225 203.906 270.337 C 203.906 249.920,203.980 250.391,200.781 250.391 C 199.620 250.391,199.090 250.626,198.466 251.420 " stroke="none" fill="#ffffff" fill-rule="evenodd"></path></g></svg>